# xmcd
#
# Track frame offsets: 
#        150
#        16431
#        29458
#        44718
#        60243
#        74740
#        88957
#
# Disc length: 1414 seconds
#
# Revision: 0
# Processed by: cddbd v1.5.2PL0 Copyright (c) Steve Scherf et al.
# Submitted via: ExactAudioCopyFreeDBPlugin 1.0
#
DISCID=63058407
DTITLE=Jennette McCurdy - Jennette McCurdy-EP
DYEAR=2012
DGENRE=Country
TTITLE0=Generation Love
TTITLE1=Don't You Just Hate Those People
TTITLE2=Break Your Heart
TTITLE3=Stronger
TTITLE4=Better
TTITLE5=Put Your Arms Around Someone
TTITLE6=Have to Say Goodbye
EXTD=
EXTT0=
EXTT1=
EXTT2=
EXTT3=
EXTT4=
EXTT5=
EXTT6=
PLAYORDER=
